<svg xmlns="http://www.w3.org/2000/svg" viewBox="0 0 1200 630" role="img" aria-labelledby="title desc">
  <title id="title">ZASHE MANAGEMENT LTD social preview</title>
  <desc id="desc">Social preview image for ZASHE construction management website.</desc>
  <defs>
    <linearGradient id="shade" x1="0" x2="1" y1="0" y2="1">
      <stop offset="0" stop-color="#101317"/>
      <stop offset=".58" stop-color="#171c20"/>
      <stop offset="1" stop-color="#27302b"/>
    </linearGradient>
    <linearGradient id="beam" x1="0" x2="1" y1="0" y2="1">
      <stop offset="0" stop-color="#f6bd42"/>
      <stop offset=".58" stop-color="#f08a2d"/>
      <stop offset="1" stop-color="#dd642f"/>
    </linearGradient>
    <pattern id="grid" width="72" height="72" patternUnits="userSpaceOnUse">
      <path d="M72 0H0v72" fill="none" stroke="#f3eee4" stroke-opacity=".06" stroke-width="2"/>
    </pattern>
  </defs>
  <rect width="1200" height="630" fill="url(#shade)"/>
  <rect width="1200" height="630" fill="url(#grid)"/>
  <path d="M805 40h280l-130 550H675L805 40Z" fill="#f3eee4" opacity=".08"/>
  <path d="M857 64h250L997 566H747L857 64Z" fill="url(#beam)" opacity=".18"/>
  <g transform="translate(76 68)">
    <rect width="112" height="112" rx="16" fill="#101317" stroke="#f6bd42" stroke-opacity=".38" stroke-width="2"/>
    <path d="M22 22h68v16L49 76h41v16H22V76l41-38H22V22Z" fill="url(#beam)"/>
  </g>
  <text x="218" y="112" fill="#9ca59d" font-family="Arial, Helvetica, sans-serif" font-size="20" font-weight="800" letter-spacing="4">CONSTRUCTION MANAGEMENT</text>
  <text x="218" y="174" fill="#f3eee4" font-family="Arial Black, Arial, Helvetica, sans-serif" font-size="78" font-weight="900">ZASHE</text>
  <text x="220" y="220" fill="#f6bd42" font-family="Arial, Helvetica, sans-serif" font-size="24" font-weight="900" letter-spacing="5">MANAGEMENT LTD</text>
  <text x="76" y="350" fill="#f3eee4" font-family="Arial Black, Arial, Helvetica, sans-serif" font-size="61" font-weight="900">BUILD CONTROL FROM</text>
  <text x="76" y="424" fill="#f3eee4" font-family="Arial Black, Arial, Helvetica, sans-serif" font-size="61" font-weight="900">GROUNDWORKS TO FINISH</text>
  <text x="80" y="500" fill="#d8d2c6" font-family="Arial, Helvetica, sans-serif" font-size="27" font-weight="700">Commercial / Domestic / Civil Engineering / Specialist Trades</text>
  <rect x="80" y="538" width="275" height="44" fill="url(#beam)"/>
  <text x="104" y="567" fill="#101317" font-family="Arial, Helvetica, sans-serif" font-size="19" font-weight="900">Company No. 17221503</text>
</svg>
